<?xml version="1.0" standalone="no"?>
<!DOCTYPE svg PUBLIC "-//W3C//DTD SVG 20010904//EN"
 "http://www.w3.org/TR/2001/REC-SVG-20010904/DTD/svg10.dtd">
<svg version="1.0" xmlns="http://www.w3.org/2000/svg"
 width="1188.000000pt" height="1188.000000pt" viewBox="0 0 1188.000000 1188.000000"
 preserveAspectRatio="xMidYMid meet">

<g transform="translate(0.000000,1188.000000) scale(0.100000,-0.100000)"
fill="#000000" stroke="none">
<path d="M5909 10220 c-14 -15 -171 -183 -350 -371 -178 -189 -362 -384 -409
-433 -47 -50 -128 -136 -180 -191 -53 -55 -170 -179 -260 -275 -91 -96 -203
-215 -251 -265 -130 -136 -265 -279 -365 -385 -85 -91 -164 -174 -340 -360
-45 -47 -96 -101 -114 -120 -18 -19 -160 -170 -316 -336 l-284 -300 -238 -27
c-265 -30 -404 -47 -1257 -147 -143 -17 -336 -39 -430 -50 -93 -11 -249 -29
-345 -40 -96 -11 -292 -34 -435 -51 -143 -16 -264 -31 -270 -33 -5 -1 841 -6
1880 -10 l1890 -7 25 33 c305 398 583 639 949 822 291 146 585 231 930 267
459 48 1055 -100 1488 -368 275 -171 555 -437 756 -720 l52 -73 766 0 c421 0
1267 3 1880 7 956 6 1103 9 1034 20 -191 30 -1054 152 -1760 247 -181 25 -485
68 -675 96 -190 28 -365 53 -390 57 -49 7 -44 2 -234 203 -104 109 -226 238
-406 426 -58 60 -186 195 -286 299 -99 105 -322 339 -495 520 -173 182 -532
560 -798 840 -267 281 -524 551 -573 600 -48 50 -100 105 -114 123 -33 39 -42
39 -75 2z m287 -1122 c130 -150 260 -300 288 -333 43 -50 92 -106 141 -161 6
-6 62 -71 125 -144 63 -74 153 -177 198 -229 82 -94 109 -131 96 -131 -7 0
-40 30 -225 199 -174 161 -335 308 -394 362 -270 246 -442 405 -452 417 -16
19 -6 27 -269 -218 -44 -41 -107 -100 -140 -130 -156 -145 -361 -336 -474
-441 -170 -159 -236 -213 -214 -176 8 11 182 217 299 352 55 63 301 352 595
698 96 113 178 206 182 206 4 1 114 -122 244 -271z"/>
<path d="M6525 7488 c-32 -25 -55 -74 -55 -119 0 -61 67 -119 137 -119 85 0
150 112 110 190 -33 65 -137 92 -192 48z m129 -39 c39 -30 37 -90 -4 -131 -26
-25 -36 -29 -62 -24 -54 11 -71 34 -65 90 7 80 71 112 131 65z"/>
<path d="M5184 7494 c-8 -3 0 -34 23 -92 19 -48 38 -98 42 -112 6 -17 14 -24
27 -22 10 2 21 6 23 8 8 7 -83 224 -93 223 -6 0 -16 -3 -22 -5z"/>
<path d="M4998 7416 c-49 -22 -88 -46 -88 -53 0 -21 19 -24 49 -8 35 17 29 23
83 -87 40 -81 43 -84 68 -68 12 8 8 22 -28 92 -48 94 -50 104 -23 113 26 8 46
34 35 44 -5 5 -47 -9 -96 -33z"/>
<path d="M6806 7298 c-30 -56 -53 -105 -50 -109 9 -15 136 -79 145 -74 20 13
7 31 -41 58 -28 16 -50 30 -50 31 0 2 20 41 45 86 36 65 43 85 34 96 -6 8 -15
14 -20 14 -4 0 -33 -46 -63 -102z"/>
<path d="M4716 7257 c-16 -12 -16 -20 -1 -130 8 -65 15 -125 15 -133 0 -9 7
-14 18 -12 12 2 17 13 18 37 1 18 5 36 11 39 106 71 112 73 133 62 22 -12 60
-5 60 10 0 5 -21 21 -47 36 -27 15 -78 44 -115 65 -76 45 -69 43 -92 26z m90
-74 c24 -16 44 -31 44 -34 0 -13 -82 -61 -90 -52 -4 4 -10 32 -14 61 -8 61 -2
64 60 25z"/>
<path d="M7067 7218 c-47 -58 -77 -109 -77 -131 0 -33 28 -72 68 -95 49 -27
82 -28 109 -3 40 38 114 141 108 151 -13 22 -35 7 -81 -55 -56 -74 -83 -87
-122 -58 -45 33 -41 69 17 145 37 49 47 68 38 77 -17 17 -23 14 -60 -31z"/>
<path d="M4483 7080 c-81 -60 -92 -137 -28 -203 40 -41 90 -56 126 -36 35 19
109 21 109 4 0 -8 -10 -21 -22 -29 -16 -12 -18 -16 -7 -16 22 0 51 35 47 57
-3 13 -12 17 -31 16 -32 -2 -34 7 -7 32 11 10 20 24 20 31 0 29 -22 23 -58
-15 -48 -51 -93 -55 -141 -15 -56 47 -37 130 36 161 29 11 33 16 23 28 -17 20
-20 19 -67 -15z"/>
<path d="M7290 6968 c-79 -85 -91 -104 -66 -114 9 -4 27 7 47 30 49 57 59 49
59 -47 0 -77 2 -85 26 -108 l26 -24 -4 90 -3 90 78 3 c42 2 77 5 77 8 0 3 -6
12 -14 20 -10 10 -39 14 -100 14 -47 0 -86 3 -86 7 0 4 16 24 37 45 30 31 34
40 23 53 -7 8 -15 15 -19 14 -3 0 -40 -36 -81 -81z"/>
<path d="M11230 6611 c-147 -48 -210 -187 -144 -319 69 -138 243 -165 356 -55
107 104 78 286 -55 355 -44 22 -120 31 -157 19z m136 -56 c84 -34 123 -163 76
-250 -67 -125 -259 -120 -322 9 -33 69 -21 144 34 203 52 57 130 71 212 38z"/>
<path d="M11186 6495 c-3 -9 -6 -57 -6 -106 0 -82 1 -89 20 -89 17 0 20 7 20
45 0 38 3 45 20 45 11 0 31 -18 50 -45 20 -28 38 -45 51 -45 12 0 19 3 17 8
-24 48 -32 62 -40 62 -16 0 -8 25 12 38 24 14 27 64 6 81 -8 7 -43 15 -79 18
-54 4 -65 2 -71 -12z m122 -47 c3 -22 -2 -29 -22 -34 -44 -11 -61 -2 -64 34
l-3 33 43 -3 c38 -3 43 -6 46 -30z"/>
<path d="M1321 6489 c-147 -22 -306 -105 -426 -224 -68 -66 -90 -96 -128 -175
-59 -119 -77 -191 -77 -301 0 -227 119 -380 329 -425 87 -18 150 -18 230 2 81
20 123 41 183 91 52 43 133 141 125 150 -4 3 -33 -19 -66 -50 -34 -30 -90 -70
-127 -88 -57 -28 -76 -33 -147 -33 -107 -1 -180 31 -226 101 -39 59 -46 94
-45 223 2 127 26 225 88 355 101 211 238 325 392 325 127 0 206 -73 234 -218
7 -34 16 -62 20 -62 12 0 80 272 80 320 0 21 0 21 -27 2 -46 -32 -69 -34 -145
-13 -92 25 -185 32 -267 20z"/>
<path d="M9868 6353 c-228 -273 -258 -308 -312 -374 -30 -36 -61 -72 -68 -80
-8 -8 -81 -95 -163 -194 -176 -212 -242 -279 -290 -296 -19 -7 -35 -17 -35
-21 0 -4 68 -8 152 -8 83 0 149 3 145 6 -3 3 -20 13 -39 22 -26 13 -34 24 -36
50 -4 39 6 56 108 180 l75 92 175 -2 175 -3 -3 -110 c-3 -132 -26 -194 -77
-209 -75 -22 -56 -25 163 -25 127 -1 232 1 232 4 0 3 -15 11 -34 19 -65 27
-66 31 -47 436 21 464 24 660 13 660 -7 0 -67 -66 -134 -147z m-92 -320 c-4
-65 -11 -145 -14 -178 l-7 -60 -134 -3 c-74 -1 -138 1 -143 6 -9 9 277 352
294 352 8 0 9 -34 4 -117z"/>
<path d="M1950 6461 c0 -5 18 -12 40 -16 45 -8 70 -35 70 -76 0 -31 -113 -432
-222 -787 -40 -131 -72 -172 -141 -179 -26 -3 -50 -10 -53 -14 -3 -5 196 -8
462 -7 l468 3 52 135 c28 74 49 138 47 143 -2 4 -38 -24 -80 -62 -122 -112
-265 -171 -418 -171 -38 0 -81 6 -95 13 -21 11 -25 19 -24 58 1 24 19 100 39
169 21 69 46 156 57 193 l20 69 98 -4 c83 -3 102 -6 134 -28 40 -27 51 -52 50
-118 -1 -25 3 -39 8 -34 10 10 109 342 115 387 5 34 7 36 -54 -48 -36 -50 -93
-83 -167 -96 -81 -15 -153 -14 -158 2 -6 16 105 404 120 419 16 16 248 5 292
-15 57 -25 98 -75 110 -135 7 -28 16 -52 21 -52 5 0 9 2 9 5 0 3 14 57 30 120
17 63 30 119 30 125 0 7 -147 10 -430 10 -252 0 -430 -4 -430 -9z"/>
<path d="M3030 6460 c0 -5 11 -10 25 -10 33 0 73 -21 104 -53 l23 -26 -62
-218 c-34 -120 -68 -236 -75 -258 -7 -22 -22 -71 -33 -110 -81 -279 -90 -300
-137 -344 -31 -29 -53 -41 -74 -41 -16 0 -33 -4 -36 -10 -4 -7 53 -10 164 -10
107 0 171 4 171 10 0 6 -12 10 -26 10 -40 0 -84 50 -84 97 0 43 1 45 98 378
39 132 82 277 95 323 27 93 32 102 50 81 12 -13 90 -173 192 -394 21 -44 73
-156 117 -250 44 -93 91 -194 105 -224 21 -45 27 -51 38 -40 7 8 54 156 105
329 192 658 192 658 233 697 17 17 50 37 72 44 22 7 44 17 50 21 5 4 -68 8
-163 8 -160 0 -214 -9 -142 -24 17 -3 42 -17 57 -32 39 -40 38 -49 -97 -507
-22 -77 -44 -146 -48 -154 -11 -18 -24 1 -72 107 -18 41 -59 129 -90 195 -31
66 -81 172 -111 235 -29 63 -61 129 -70 145 l-16 30 -181 3 c-119 2 -182 -1
-182 -8z"/>
<path d="M4270 6461 c0 -5 18 -11 40 -15 54 -8 75 -41 67 -101 -4 -25 -23
-100 -42 -167 -20 -68 -60 -206 -90 -308 -29 -102 -65 -225 -80 -275 -42 -143
-81 -195 -147 -195 -13 0 -30 -5 -38 -10 -10 -6 74 -10 248 -10 144 0 262 2
262 5 0 3 -21 10 -46 16 -38 10 -49 18 -60 46 -16 38 -8 81 61 313 21 69 42
144 48 168 6 23 16 42 22 42 17 0 145 -425 145 -480 0 -56 -6 -65 -53 -85 -20
-8 -37 -17 -37 -20 0 -3 104 -5 230 -5 214 0 278 8 200 25 -62 14 -82 56 -206
442 -77 240 -80 257 -40 280 12 7 156 135 192 170 47 47 171 123 233 143 39
12 71 24 71 26 0 2 -90 4 -200 4 -110 0 -200 -4 -200 -8 0 -5 11 -14 25 -20
63 -29 54 -93 -24 -164 -25 -23 -93 -85 -151 -139 -58 -53 -123 -111 -144
-130 l-39 -34 7 45 c7 45 25 112 73 270 30 99 66 142 131 159 23 7 42 14 42
16 0 3 -112 5 -250 5 -137 0 -250 -4 -250 -9z"/>
<path d="M5790 6460 c0 -5 15 -10 33 -10 34 0 107 -42 107 -62 0 -6 -27 -104
-61 -217 -33 -113 -69 -237 -80 -276 -12 -38 -34 -113 -49 -165 -16 -52 -34
-115 -40 -140 -14 -55 -54 -126 -89 -157 -14 -12 -43 -26 -64 -29 -86 -15 -38
-24 128 -24 165 0 213 9 131 24 -18 4 -41 15 -50 25 -37 41 -31 72 83 469 60
211 112 386 115 390 3 3 8 3 11 0 8 -7 47 -355 80 -703 18 -188 21 -205 39
-205 8 0 32 28 54 63 22 34 84 125 139 202 54 77 140 201 191 275 154 226 223
324 238 340 12 12 14 11 14 -8 0 -24 -8 -52 -98 -362 -33 -113 -72 -245 -86
-295 -42 -143 -66 -169 -186 -203 -25 -7 38 -10 233 -11 172 -1 267 3 267 9 0
6 -14 10 -30 10 -20 0 -40 9 -57 26 -36 37 -39 21 91 474 20 69 40 139 45 155
5 17 24 80 41 140 42 148 72 207 120 234 21 11 49 21 63 21 14 0 29 5 32 10 4
7 -59 10 -182 10 l-188 -1 -28 -42 c-26 -40 -55 -82 -267 -387 -52 -74 -121
-174 -154 -222 -54 -80 -86 -108 -86 -75 0 6 -5 50 -10 97 -6 47 -21 191 -35
320 -14 129 -28 252 -31 273 l-6 37 -189 0 c-119 0 -189 -4 -189 -10z"/>
<path d="M7290 6462 c0 -5 19 -12 42 -18 25 -5 49 -19 60 -35 19 -25 19 -27
-1 -110 -11 -46 -41 -151 -65 -234 -24 -82 -70 -238 -101 -345 -69 -239 -95
-290 -156 -309 -24 -8 -53 -17 -64 -22 -11 -4 190 -8 446 -8 l465 -1 52 135
c71 184 70 186 -23 92 -108 -109 -273 -177 -427 -177 -142 0 -145 10 -71 265
19 66 41 141 48 167 7 25 16 51 19 57 4 7 42 11 93 11 139 0 193 -39 193 -138
0 -70 13 -59 35 28 9 36 35 125 57 198 22 74 37 136 34 140 -7 6 -4 9 -45 -50
-59 -88 -115 -116 -253 -125 -80 -5 -88 -4 -88 12 0 10 23 97 51 194 29 97 54
186 57 199 7 34 27 38 161 31 110 -6 125 -9 168 -35 52 -32 93 -96 93 -147 0
-18 5 -27 12 -25 10 4 38 94 72 231 l6 27 -435 0 c-239 0 -435 -4 -435 -8z"/>
<path d="M8411 6438 c-39 -123 -70 -242 -65 -247 3 -3 14 5 22 19 42 64 125
139 183 165 74 33 179 46 179 23 0 -9 -23 -91 -50 -184 -28 -93 -57 -191 -65
-219 -102 -350 -133 -450 -155 -500 -25 -56 -59 -83 -114 -94 -26 -5 -50 -11
-53 -15 -4 -3 116 -6 266 -6 179 0 270 3 266 10 -3 6 -22 10 -41 10 -39 0 -84
36 -84 67 1 32 26 121 125 453 54 179 102 341 107 360 5 19 16 56 24 83 15 45
17 47 52 46 103 -1 179 -67 189 -163 3 -31 9 -56 14 -56 7 0 30 69 44 135 4
17 13 47 21 68 8 20 14 46 14 57 0 20 -8 20 -434 20 l-434 0 -11 -32z"/>
<path d="M10450 6460 c0 -5 9 -10 20 -10 32 0 78 -27 85 -50 9 -30 -2 -85 -50
-255 -24 -82 -73 -253 -110 -380 -36 -126 -78 -255 -93 -285 -24 -49 -33 -57
-72 -69 -25 -8 -54 -17 -65 -22 -11 -4 178 -7 419 -6 l440 2 53 139 c29 77 51
141 49 144 -3 2 -36 -27 -73 -64 -108 -108 -258 -174 -395 -174 -81 0 -102 14
-100 65 2 54 217 799 250 865 27 55 65 85 119 93 13 2 26 6 29 10 4 4 -108 7
-249 7 -165 0 -257 -4 -257 -10z"/>
<path d="M8205 5103 c-130 -3 -171 -7 -177 -17 -4 -8 -61 -81 -126 -162 -410
-514 -905 -820 -1523 -943 -248 -50 -418 -61 -634 -41 -758 70 -1409 443
-1869 1068 l-38 52 -992 0 c-1300 0 -2819 -12 -2736 -22 162 -19 1279 -149
1395 -162 72 -9 245 -29 385 -45 717 -85 1112 -131 1125 -131 8 0 15 -7 15
-16 0 -8 -62 -135 -139 -282 -76 -147 -155 -299 -175 -339 -26 -50 -35 -79
-31 -93 8 -25 133 -184 244 -310 93 -107 309 -319 418 -411 l83 -71 52 29 c29
16 141 79 248 140 107 60 222 125 255 143 33 18 77 44 97 57 21 12 39 23 41
23 3 0 64 34 136 75 73 41 134 75 136 75 2 0 38 -25 80 -55 92 -66 273 -156
375 -185 41 -13 118 -30 170 -39 l95 -17 136 -542 c75 -299 139 -545 141 -547
3 -3 112 -8 244 -11 292 -8 807 16 830 39 4 3 13 28 20 54 7 27 28 100 47 163
19 63 72 241 117 395 45 154 88 298 95 320 7 22 18 59 24 81 11 42 11 42 99
69 179 55 400 151 540 234 29 17 60 31 69 31 9 0 79 -37 157 -81 794 -458 761
-439 778 -439 25 0 331 284 463 430 69 75 201 241 260 324 l48 68 -33 62 c-71
130 -89 165 -155 291 -38 72 -88 165 -112 209 -23 43 -41 82 -38 86 2 4 26 10
52 13 26 4 107 16 178 27 138 22 401 61 575 85 58 8 220 30 360 50 140 19 338
46 440 60 316 41 558 75 930 129 356 52 420 62 424 67 2 2 -500 5 -1117 6
-617 1 -1390 4 -1717 6 -327 2 -671 2 -765 0z"/>
<path d="M7220 5075 c0 -8 7 -15 15 -15 8 0 15 7 15 15 0 8 -7 15 -15 15 -8 0
-15 -7 -15 -15z"/>
<path d="M4460 5013 c-24 -27 -59 -65 -79 -85 l-35 -38 39 -41 c44 -45 102
-79 135 -79 59 0 120 68 120 134 0 32 -9 47 -57 97 -31 32 -61 59 -68 59 -6 0
-31 -21 -55 -47z m105 -48 c42 -43 44 -72 9 -114 -36 -43 -82 -43 -131 2 l-36
34 49 55 c27 31 54 57 61 57 7 1 28 -15 48 -34z"/>
<path d="M7273 5024 c-7 -19 144 -176 166 -172 31 6 19 29 -55 107 -79 82
-100 94 -111 65z"/>
<path d="M7143 4912 c-40 -31 -72 -62 -73 -69 0 -23 22 -25 44 -4 12 12 27 21
33 21 6 0 38 -34 73 -75 50 -61 65 -74 76 -64 8 6 14 15 14 19 0 5 -27 41 -60
81 l-61 72 26 27 c27 28 33 50 13 50 -7 -1 -45 -26 -85 -58z"/>
<path d="M4671 4783 c-76 -102 -81 -117 -49 -134 12 -6 40 -25 61 -42 30 -23
41 -27 50 -18 12 13 -6 34 -61 71 l-22 15 24 30 24 30 38 -27 c27 -20 41 -25
49 -17 7 7 -2 21 -30 44 l-40 34 21 22 21 21 43 -31 c41 -30 61 -32 59 -8 0
10 -110 98 -120 97 -2 -1 -33 -40 -68 -87z"/>
<path d="M6963 4781 c-29 -20 -55 -40 -58 -43 -4 -3 23 -51 60 -107 l66 -101
69 46 c38 26 67 51 64 55 -9 15 -28 10 -68 -18 l-39 -26 -25 28 c-27 32 -27
32 39 77 18 12 21 19 13 28 -9 9 -21 6 -52 -14 -38 -24 -41 -24 -56 -7 -24 26
-20 35 28 66 27 17 42 33 39 41 -8 21 -23 16 -80 -25z"/>
<path d="M4853 4636 c-38 -77 -49 -106 -40 -115 19 -19 26 -13 58 59 18 39 35
70 39 70 9 0 20 -78 20 -141 0 -33 4 -49 13 -49 7 0 44 22 81 50 38 27 73 47
77 44 4 -2 -8 -34 -26 -71 -25 -50 -31 -71 -23 -80 6 -7 14 -13 18 -13 7 0
110 205 110 220 0 15 -31 20 -52 9 -12 -6 -51 -33 -87 -59 -36 -27 -69 -46
-73 -44 -4 3 -8 47 -8 99 0 94 -11 125 -43 125 -7 0 -36 -47 -64 -104z"/>
<path d="M6731 4649 c-36 -16 -67 -31 -69 -33 -9 -10 98 -216 112 -216 25 0
27 17 9 55 -17 36 -17 37 2 51 27 20 46 17 85 -11 36 -26 65 -32 75 -15 9 15
-10 35 -50 55 -35 16 -43 29 -25 40 32 20 -15 106 -57 105 -10 -1 -47 -14 -82
-31z m93 -25 c29 -28 19 -52 -33 -79 -38 -19 -55 -10 -66 36 -6 23 -2 28 32
41 49 21 49 21 67 2z"/>
<path d="M5292 4636 c1 -10 8 -17 13 -17 15 1 12 24 -3 29 -9 3 -13 -2 -10
-12z"/>
<path d="M5243 4543 c-6 -21 -24 -71 -39 -111 -23 -62 -25 -75 -13 -83 8 -5
17 -9 20 -9 10 0 90 220 84 231 -14 22 -41 8 -52 -28z"/>
<path d="M6477 4558 c-11 -9 -24 -51 -37 -123 -12 -60 -23 -118 -26 -127 -4
-13 0 -18 15 -18 13 0 21 9 26 30 6 27 14 32 75 50 58 17 73 19 90 8 11 -7 20
-17 20 -21 0 -7 39 0 49 9 5 4 -180 204 -188 204 -4 0 -15 -6 -24 -12z m67
-93 c33 -40 35 -45 19 -54 -10 -5 -36 -12 -57 -16 -37 -7 -39 -7 -33 16 3 13
9 41 12 62 4 20 11 37 15 37 4 0 24 -20 44 -45z"/>
<path d="M5371 4532 c-18 -34 -52 -215 -42 -225 16 -16 41 0 41 26 0 13 6 31
13 41 21 29 64 3 79 -48 13 -48 16 -52 46 -61 21 -6 22 -4 16 22 -3 15 -13 41
-20 57 -17 36 -18 33 10 40 27 7 51 55 41 85 -8 26 -42 44 -118 64 -52 14 -58
14 -66 -1z m122 -54 c12 -6 17 -18 15 -36 -3 -23 -8 -27 -40 -30 -54 -5 -80
12 -72 46 4 15 9 31 11 35 5 9 58 0 86 -15z"/>
<path d="M5985 4530 c-8 -13 4 -32 16 -25 12 8 12 35 0 35 -6 0 -13 -4 -16
-10z"/>
<path d="M6213 4500 c-102 -24 -137 -114 -81 -207 23 -39 73 -57 133 -48 49 7
92 35 81 53 -5 9 -15 8 -36 -3 -73 -38 -147 -4 -157 72 -5 37 -2 45 26 73 26
26 38 31 73 30 60 -3 60 -2 48 20 -11 21 -32 23 -87 10z"/>
<path d="M5742 4453 c2 -12 14 -19 37 -21 l34 -3 -7 -105 c-7 -101 -7 -104 14
-104 25 0 26 3 37 115 l8 90 38 -3 c31 -3 37 0 37 16 0 16 -10 20 -67 25 -114
11 -135 9 -131 -10z"/>
<path d="M5985 4383 c11 -151 14 -163 37 -163 20 0 21 3 14 92 -3 50 -6 104
-6 120 0 23 -4 28 -25 28 l-26 0 6 -77z"/>
</g>
</svg>
